solid Exported from Blender-2.78 (sub 0)
facet normal -0.906849 0.000000 -0.421456
outer loop
vertex -0.951056 -0.309017 0.000000
vertex -1.229159 -0.399378 0.598394
vertex -1.229159 0.399378 0.598394
endloop
endfacet
facet normal -0.906849 -0.000000 -0.421456
outer loop
vertex -1.229159 0.399378 0.598394
vertex -0.951057 0.309017 0.000000
vertex -0.951056 -0.309017 0.000000
endloop
endfacet
facet normal 0.906849 0.000000 -0.421456
outer loop
vertex 0.951056 0.309017 0.000000
vertex 1.229159 0.399378 0.598394
vertex 1.229159 -0.399378 0.598394
endloop
endfacet
facet normal 0.906849 0.000000 -0.421456
outer loop
vertex 1.229159 -0.399378 0.598394
vertex 0.951056 -0.309017 0.000000
vertex 0.951056 0.309017 0.000000
endloop
endfacet
facet normal -0.280232 0.862465 -0.421456
outer loop
vertex 0.000000 1.292414 0.598394
vertex 0.000000 1.000000 0.000000
vertex -0.587785 0.809017 0.000000
endloop
endfacet
facet normal -0.280232 0.862465 -0.421456
outer loop
vertex -0.587785 0.809017 0.000000
vertex -0.759662 1.045585 0.598394
vertex 0.000000 1.292414 0.598394
endloop
endfacet
facet normal 0.280232 -0.862464 -0.421456
outer loop
vertex 0.587785 -0.809017 0.000000
vertex 0.759662 -1.045585 0.598394
vertex 0.000000 -1.292414 0.598394
endloop
endfacet
facet normal 0.280232 -0.862465 -0.421456
outer loop
vertex 0.000000 -1.292414 0.598394
vertex 0.000000 -1.000000 0.000000
vertex 0.587785 -0.809017 0.000000
endloop
endfacet
facet normal -0.733656 -0.533032 -0.421456
outer loop
vertex -0.587785 -0.809017 0.000000
vertex -0.759662 -1.045585 0.598394
vertex -1.229159 -0.399378 0.598394
endloop
endfacet
facet normal -0.733656 -0.533032 -0.421456
outer loop
vertex -1.229159 -0.399378 0.598394
vertex -0.951056 -0.309017 0.000000
vertex -0.587785 -0.809017 0.000000
endloop
endfacet
facet normal 0.733656 0.533033 -0.421456
outer loop
vertex 0.587785 0.809017 0.000000
vertex 0.759661 1.045585 0.598394
vertex 1.229159 0.399378 0.598394
endloop
endfacet
facet normal 0.733656 0.533032 -0.421456
outer loop
vertex 1.229159 0.399378 0.598394
vertex 0.951056 0.309017 0.000000
vertex 0.587785 0.809017 0.000000
endloop
endfacet
facet normal -0.733656 0.533032 -0.421456
outer loop
vertex -0.951057 0.309017 0.000000
vertex -1.229159 0.399378 0.598394
vertex -0.759662 1.045585 0.598394
endloop
endfacet
facet normal -0.733656 0.533033 -0.421456
outer loop
vertex -0.759662 1.045585 0.598394
vertex -0.587785 0.809017 0.000000
vertex -0.951057 0.309017 0.000000
endloop
endfacet
facet normal 0.733656 -0.533032 -0.421456
outer loop
vertex 0.951056 -0.309017 0.000000
vertex 1.229159 -0.399378 0.598394
vertex 0.759662 -1.045585 0.598394
endloop
endfacet
facet normal 0.733656 -0.533032 -0.421456
outer loop
vertex 0.759662 -1.045585 0.598394
vertex 0.587785 -0.809017 0.000000
vertex 0.951056 -0.309017 0.000000
endloop
endfacet
facet normal -0.280232 -0.862465 -0.421456
outer loop
vertex 0.000000 -1.000000 0.000000
vertex 0.000000 -1.292414 0.598394
vertex -0.759662 -1.045585 0.598394
endloop
endfacet
facet normal -0.280232 -0.862464 -0.421456
outer loop
vertex -0.759662 -1.045585 0.598394
vertex -0.587785 -0.809017 0.000000
vertex 0.000000 -1.000000 0.000000
endloop
endfacet
facet normal 0.280232 0.862465 -0.421456
outer loop
vertex 0.000000 1.000000 0.000000
vertex 0.000000 1.292414 0.598394
vertex 0.759661 1.045585 0.598394
endloop
endfacet
facet normal 0.280232 0.862465 -0.421456
outer loop
vertex 0.759661 1.045585 0.598394
vertex 0.587785 0.809017 0.000000
vertex 0.000000 1.000000 0.000000
endloop
endfacet
facet normal 0.303093 0.932826 -0.194859
outer loop
vertex 0.000000 1.292414 0.598394
vertex 0.000000 1.413370 1.177433
vertex 0.830758 1.143440 1.177433
endloop
endfacet
facet normal 0.303094 0.932826 -0.194859
outer loop
vertex 0.830758 1.143440 1.177433
vertex 0.759661 1.045585 0.598394
vertex 0.000000 1.292414 0.598394
endloop
endfacet
facet normal -0.980831 0.000000 -0.194859
outer loop
vertex -1.229159 -0.399378 0.598394
vertex -1.344194 -0.436755 1.177433
vertex -1.344194 0.436755 1.177433
endloop
endfacet
facet normal -0.980831 0.000000 -0.194859
outer loop
vertex -1.344194 0.436755 1.177433
vertex -1.229159 0.399378 0.598394
vertex -1.229159 -0.399378 0.598394
endloop
endfacet
facet normal 0.980831 0.000000 -0.194859
outer loop
vertex 1.229159 0.399378 0.598394
vertex 1.344194 0.436755 1.177433
vertex 1.344194 -0.436755 1.177433
endloop
endfacet
facet normal 0.980831 0.000000 -0.194859
outer loop
vertex 1.344194 -0.436755 1.177433
vertex 1.229159 -0.399378 0.598394
vertex 1.229159 0.399378 0.598394
endloop
endfacet
facet normal -0.303094 0.932826 -0.194859
outer loop
vertex -0.759662 1.045585 0.598394
vertex -0.830758 1.143440 1.177433
vertex 0.000000 1.413370 1.177433
endloop
endfacet
facet normal -0.303094 0.932826 -0.194859
outer loop
vertex 0.000000 1.413370 1.177433
vertex 0.000000 1.292414 0.598394
vertex -0.759662 1.045585 0.598394
endloop
endfacet
facet normal 0.303094 -0.932826 -0.194858
outer loop
vertex 0.759662 -1.045585 0.598394
vertex 0.830758 -1.143440 1.177433
vertex 0.000000 -1.413370 1.177433
endloop
endfacet
facet normal 0.303094 -0.932826 -0.194859
outer loop
vertex 0.000000 -1.413370 1.177433
vertex 0.000000 -1.292414 0.598394
vertex 0.759662 -1.045585 0.598394
endloop
endfacet
facet normal -0.793509 -0.576518 -0.194859
outer loop
vertex -0.759662 -1.045585 0.598394
vertex -0.830758 -1.143440 1.177433
vertex -1.344194 -0.436755 1.177433
endloop
endfacet
facet normal -0.793510 -0.576518 -0.194859
outer loop
vertex -1.344194 -0.436755 1.177433
vertex -1.229159 -0.399378 0.598394
vertex -0.759662 -1.045585 0.598394
endloop
endfacet
facet normal 0.793509 0.576518 -0.194859
outer loop
vertex 0.759661 1.045585 0.598394
vertex 0.830758 1.143440 1.177433
vertex 1.344194 0.436755 1.177433
endloop
endfacet
facet normal 0.793509 0.576518 -0.194859
outer loop
vertex 1.344194 0.436755 1.177433
vertex 1.229159 0.399378 0.598394
vertex 0.759661 1.045585 0.598394
endloop
endfacet
facet normal -0.793509 0.576518 -0.194859
outer loop
vertex -1.229159 0.399378 0.598394
vertex -1.344194 0.436755 1.177433
vertex -0.830758 1.143440 1.177433
endloop
endfacet
facet normal -0.793509 0.576518 -0.194859
outer loop
vertex -0.830758 1.143440 1.177433
vertex -0.759662 1.045585 0.598394
vertex -1.229159 0.399378 0.598394
endloop
endfacet
facet normal 0.793509 -0.576518 -0.194859
outer loop
vertex 1.229159 -0.399378 0.598394
vertex 1.344194 -0.436755 1.177433
vertex 0.830758 -1.143440 1.177433
endloop
endfacet
facet normal 0.793509 -0.576518 -0.194859
outer loop
vertex 0.830758 -1.143440 1.177433
vertex 0.759662 -1.045585 0.598394
vertex 1.229159 -0.399378 0.598394
endloop
endfacet
facet normal -0.303093 -0.932826 -0.194859
outer loop
vertex 0.000000 -1.292414 0.598394
vertex 0.000000 -1.413370 1.177433
vertex -0.830758 -1.143440 1.177433
endloop
endfacet
facet normal -0.303093 -0.932826 -0.194859
outer loop
vertex -0.830758 -1.143440 1.177433
vertex -0.759662 -1.045585 0.598394
vertex 0.000000 -1.292414 0.598394
endloop
endfacet
facet normal 0.809017 -0.587785 0.000000
outer loop
vertex 1.344194 -0.436755 1.177433
vertex 1.344194 -0.436755 1.797848
vertex 0.830758 -1.143440 1.797848
endloop
endfacet
facet normal 0.809017 -0.587785 0.000000
outer loop
vertex 0.830758 -1.143440 1.797848
vertex 0.830758 -1.143440 1.177433
vertex 1.344194 -0.436755 1.177433
endloop
endfacet
facet normal -0.309017 -0.951057 0.000000
outer loop
vertex 0.000000 -1.413370 1.177433
vertex 0.000000 -1.413370 1.797848
vertex -0.830758 -1.143440 1.797848
endloop
endfacet
facet normal -0.309017 -0.951057 0.000000
outer loop
vertex -0.830758 -1.143440 1.797848
vertex -0.830758 -1.143440 1.177433
vertex 0.000000 -1.413370 1.177433
endloop
endfacet
facet normal 0.309017 0.951057 0.000000
outer loop
vertex 0.000000 1.413370 1.177433
vertex 0.000000 1.413370 1.797848
vertex 0.830758 1.143440 1.797848
endloop
endfacet
facet normal 0.309017 0.951057 0.000000
outer loop
vertex 0.830758 1.143440 1.797848
vertex 0.830758 1.143440 1.177433
vertex 0.000000 1.413370 1.177433
endloop
endfacet
facet normal -1.000000 0.000000 0.000000
outer loop
vertex -1.344194 -0.436755 1.177433
vertex -1.344194 -0.436755 1.797848
vertex -1.344194 0.436755 1.797848
endloop
endfacet
facet normal -1.000000 0.000000 0.000000
outer loop
vertex -1.344194 0.436755 1.797848
vertex -1.344194 0.436755 1.177433
vertex -1.344194 -0.436755 1.177433
endloop
endfacet
facet normal 1.000000 0.000000 0.000000
outer loop
vertex 1.344194 0.436755 1.177433
vertex 1.344194 0.436755 1.797848
vertex 1.344194 -0.436755 1.797848
endloop
endfacet
facet normal 1.000000 0.000000 0.000000
outer loop
vertex 1.344194 -0.436755 1.797848
vertex 1.344194 -0.436755 1.177433
vertex 1.344194 0.436755 1.177433
endloop
endfacet
facet normal -0.309017 0.951056 0.000000
outer loop
vertex -0.830758 1.143440 1.177433
vertex -0.830758 1.143440 1.797848
vertex 0.000000 1.413370 1.797848
endloop
endfacet
facet normal -0.309017 0.951056 0.000000
outer loop
vertex 0.000000 1.413370 1.797848
vertex 0.000000 1.413370 1.177433
vertex -0.830758 1.143440 1.177433
endloop
endfacet
facet normal 0.309017 -0.951057 0.000000
outer loop
vertex 0.830758 -1.143440 1.177433
vertex 0.830758 -1.143440 1.797848
vertex 0.000000 -1.413370 1.797848
endloop
endfacet
facet normal 0.309017 -0.951057 0.000000
outer loop
vertex 0.000000 -1.413370 1.797848
vertex 0.000000 -1.413370 1.177433
vertex 0.830758 -1.143440 1.177433
endloop
endfacet
facet normal -0.809017 -0.587785 0.000000
outer loop
vertex -0.830758 -1.143440 1.177433
vertex -0.830758 -1.143440 1.797848
vertex -1.344194 -0.436755 1.797848
endloop
endfacet
facet normal -0.809017 -0.587785 0.000000
outer loop
vertex -1.344194 -0.436755 1.797848
vertex -1.344194 -0.436755 1.177433
vertex -0.830758 -1.143440 1.177433
endloop
endfacet
facet normal 0.809017 0.587785 0.000000
outer loop
vertex 0.830758 1.143440 1.177433
vertex 0.830758 1.143440 1.797848
vertex 1.344194 0.436755 1.797848
endloop
endfacet
facet normal 0.809017 0.587785 0.000000
outer loop
vertex 1.344194 0.436755 1.797848
vertex 1.344194 0.436755 1.177433
vertex 0.830758 1.143440 1.177433
endloop
endfacet
facet normal -0.809017 0.587785 0.000000
outer loop
vertex -1.344194 0.436755 1.177433
vertex -1.344194 0.436755 1.797848
vertex -0.830758 1.143440 1.797848
endloop
endfacet
facet normal -0.809017 0.587785 0.000000
outer loop
vertex -0.830758 1.143440 1.797848
vertex -0.830758 1.143440 1.177433
vertex -1.344194 0.436755 1.177433
endloop
endfacet
facet normal 0.196978 0.606237 -0.770504
outer loop
vertex 0.000000 1.413370 1.797848
vertex 0.000000 1.657209 1.989702
vertex 0.974082 1.340710 1.989702
endloop
endfacet
facet normal 0.196978 0.606236 -0.770504
outer loop
vertex 0.974082 1.340710 1.989702
vertex 0.830758 1.143440 1.797848
vertex 0.000000 1.413370 1.797848
endloop
endfacet
facet normal -0.515696 -0.374675 -0.770504
outer loop
vertex -0.830758 -1.143440 1.797848
vertex -0.974083 -1.340710 1.989702
vertex -1.576099 -0.512106 1.989702
endloop
endfacet
facet normal -0.515696 -0.374675 -0.770504
outer loop
vertex -1.576099 -0.512106 1.989702
vertex -1.344194 -0.436755 1.797848
vertex -0.830758 -1.143440 1.797848
endloop
endfacet
facet normal 0.637434 0.000000 -0.770505
outer loop
vertex 1.344194 0.436755 1.797848
vertex 1.576099 0.512106 1.989702
vertex 1.576099 -0.512106 1.989702
endloop
endfacet
facet normal 0.637435 0.000000 -0.770504
outer loop
vertex 1.576099 -0.512106 1.989702
vertex 1.344194 -0.436755 1.797848
vertex 1.344194 0.436755 1.797848
endloop
endfacet
facet normal -0.515696 0.374675 -0.770504
outer loop
vertex -1.344194 0.436755 1.797848
vertex -1.576099 0.512106 1.989702
vertex -0.974083 1.340710 1.989702
endloop
endfacet
facet normal -0.515696 0.374675 -0.770504
outer loop
vertex -0.974083 1.340710 1.989702
vertex -0.830758 1.143440 1.797848
vertex -1.344194 0.436755 1.797848
endloop
endfacet
facet normal -0.196978 -0.606236 -0.770505
outer loop
vertex 0.000000 -1.413370 1.797848
vertex 0.000000 -1.657209 1.989702
vertex -0.974083 -1.340710 1.989702
endloop
endfacet
facet normal -0.196978 -0.606236 -0.770504
outer loop
vertex -0.974083 -1.340710 1.989702
vertex -0.830758 -1.143440 1.797848
vertex 0.000000 -1.413370 1.797848
endloop
endfacet
facet normal -0.196978 0.606237 -0.770504
outer loop
vertex -0.830758 1.143440 1.797848
vertex -0.974083 1.340710 1.989702
vertex 0.000000 1.657209 1.989702
endloop
endfacet
facet normal -0.196978 0.606236 -0.770504
outer loop
vertex 0.000000 1.657209 1.989702
vertex 0.000000 1.413370 1.797848
vertex -0.830758 1.143440 1.797848
endloop
endfacet
facet normal -0.637435 0.000000 -0.770504
outer loop
vertex -1.344194 -0.436755 1.797848
vertex -1.576099 -0.512106 1.989702
vertex -1.576099 0.512106 1.989702
endloop
endfacet
facet normal -0.637435 0.000000 -0.770504
outer loop
vertex -1.576099 0.512106 1.989702
vertex -1.344194 0.436755 1.797848
vertex -1.344194 -0.436755 1.797848
endloop
endfacet
facet normal 0.515695 0.374675 -0.770504
outer loop
vertex 0.830758 1.143440 1.797848
vertex 0.974082 1.340710 1.989702
vertex 1.576099 0.512106 1.989702
endloop
endfacet
facet normal 0.515696 0.374675 -0.770504
outer loop
vertex 1.576099 0.512106 1.989702
vertex 1.344194 0.436755 1.797848
vertex 0.830758 1.143440 1.797848
endloop
endfacet
facet normal 0.196978 -0.606237 -0.770504
outer loop
vertex 0.830758 -1.143440 1.797848
vertex 0.974083 -1.340710 1.989702
vertex 0.000000 -1.657209 1.989702
endloop
endfacet
facet normal 0.196978 -0.606237 -0.770504
outer loop
vertex 0.000000 -1.657209 1.989702
vertex 0.000000 -1.413370 1.797848
vertex 0.830758 -1.143440 1.797848
endloop
endfacet
facet normal 0.515696 -0.374675 -0.770504
outer loop
vertex 1.344194 -0.436755 1.797848
vertex 1.576099 -0.512106 1.989702
vertex 0.974083 -1.340710 1.989702
endloop
endfacet
facet normal 0.515696 -0.374675 -0.770504
outer loop
vertex 0.974083 -1.340710 1.989702
vertex 0.830758 -1.143440 1.797848
vertex 1.344194 -0.436755 1.797848
endloop
endfacet
facet normal -0.809017 -0.587786 0.000000
outer loop
vertex -0.974083 -1.340710 1.989702
vertex -0.974083 -1.340710 2.231988
vertex -1.576099 -0.512106 2.231988
endloop
endfacet
facet normal -0.809017 -0.587785 0.000000
outer loop
vertex -1.576099 -0.512106 2.231988
vertex -1.576099 -0.512106 1.989702
vertex -0.974083 -1.340710 1.989702
endloop
endfacet
facet normal 0.809017 0.587786 0.000000
outer loop
vertex 0.974082 1.340710 1.989702
vertex 0.974082 1.340710 2.231988
vertex 1.576099 0.512106 2.231988
endloop
endfacet
facet normal 0.809017 0.587785 0.000000
outer loop
vertex 1.576099 0.512106 2.231988
vertex 1.576099 0.512106 1.989702
vertex 0.974082 1.340710 1.989702
endloop
endfacet
facet normal -1.000000 0.000000 0.000000
outer loop
vertex -1.576099 -0.512106 1.989702
vertex -1.576099 -0.512106 2.231988
vertex -1.576099 0.512106 2.231988
endloop
endfacet
facet normal -1.000000 0.000000 0.000000
outer loop
vertex -1.576099 0.512106 2.231988
vertex -1.576099 0.512106 1.989702
vertex -1.576099 -0.512106 1.989702
endloop
endfacet
facet normal -0.309017 0.951057 0.000000
outer loop
vertex -0.974083 1.340710 1.989702
vertex -0.974083 1.340710 2.231988
vertex 0.000000 1.657209 2.231988
endloop
endfacet
facet normal -0.309017 0.951056 0.000000
outer loop
vertex 0.000000 1.657209 2.231988
vertex 0.000000 1.657209 1.989702
vertex -0.974083 1.340710 1.989702
endloop
endfacet
facet normal 1.000000 0.000000 0.000000
outer loop
vertex 1.576099 0.512106 1.989702
vertex 1.576099 0.512106 2.231988
vertex 1.576099 -0.512106 2.231988
endloop
endfacet
facet normal 1.000000 0.000000 0.000000
outer loop
vertex 1.576099 -0.512106 2.231988
vertex 1.576099 -0.512106 1.989702
vertex 1.576099 0.512106 1.989702
endloop
endfacet
facet normal 0.809017 -0.587785 0.000000
outer loop
vertex 1.576099 -0.512106 1.989702
vertex 1.576099 -0.512106 2.231988
vertex 0.974083 -1.340710 2.231988
endloop
endfacet
facet normal 0.809017 -0.587785 0.000000
outer loop
vertex 0.974083 -1.340710 2.231988
vertex 0.974083 -1.340710 1.989702
vertex 1.576099 -0.512106 1.989702
endloop
endfacet
facet normal 0.309017 0.951057 0.000000
outer loop
vertex 0.000000 1.657209 1.989702
vertex 0.000000 1.657209 2.231988
vertex 0.974082 1.340710 2.231988
endloop
endfacet
facet normal 0.309017 0.951056 0.000000
outer loop
vertex 0.974082 1.340710 2.231988
vertex 0.974082 1.340710 1.989702
vertex 0.000000 1.657209 1.989702
endloop
endfacet
facet normal 0.309017 -0.951056 0.000000
outer loop
vertex 0.974083 -1.340710 1.989702
vertex 0.974083 -1.340710 2.231988
vertex 0.000000 -1.657209 2.231988
endloop
endfacet
facet normal 0.309017 -0.951057 0.000000
outer loop
vertex 0.000000 -1.657209 2.231988
vertex 0.000000 -1.657209 1.989702
vertex 0.974083 -1.340710 1.989702
endloop
endfacet
facet normal -0.309016 -0.951057 0.000000
outer loop
vertex 0.000000 -1.657209 1.989702
vertex 0.000000 -1.657209 2.231988
vertex -0.974083 -1.340710 2.231988
endloop
endfacet
facet normal -0.309017 -0.951056 0.000000
outer loop
vertex -0.974083 -1.340710 2.231988
vertex -0.974083 -1.340710 1.989702
vertex 0.000000 -1.657209 1.989702
endloop
endfacet
facet normal -0.809017 0.587785 0.000000
outer loop
vertex -1.576099 0.512106 1.989702
vertex -1.576099 0.512106 2.231988
vertex -0.974083 1.340710 2.231988
endloop
endfacet
facet normal -0.809017 0.587785 0.000000
outer loop
vertex -0.974083 1.340710 2.231988
vertex -0.974083 1.340710 1.989702
vertex -1.576099 0.512106 1.989702
endloop
endfacet
facet normal 0.000000 0.000000 1.000000
outer loop
vertex -1.576099 -0.512106 2.231988
vertex -1.371557 -0.445646 2.231988
vertex -1.371557 0.445646 2.231988
endloop
endfacet
facet normal 0.000000 0.000000 1.000000
outer loop
vertex -1.371557 0.445646 2.231988
vertex -1.576099 0.512106 2.231988
vertex -1.576099 -0.512106 2.231988
endloop
endfacet
facet normal 0.000000 0.000000 1.000000
outer loop
vertex -0.974083 -1.340710 2.231988
vertex -0.847669 -1.166716 2.231988
vertex -1.371557 -0.445646 2.231988
endloop
endfacet
facet normal 0.000000 0.000000 1.000000
outer loop
vertex -1.371557 -0.445646 2.231988
vertex -1.576099 -0.512106 2.231988
vertex -0.974083 -1.340710 2.231988
endloop
endfacet
facet normal 0.000001 0.000000 1.000000
outer loop
vertex 1.576099 0.512106 2.231988
vertex 1.371557 0.445646 2.231988
vertex 1.371557 -0.445646 2.231988
endloop
endfacet
facet normal -0.000002 0.000000 1.000000
outer loop
vertex 1.371557 -0.445646 2.231988
vertex 1.576099 -0.512106 2.231988
vertex 1.576099 0.512106 2.231988
endloop
endfacet
facet normal 0.000000 0.000000 1.000000
outer loop
vertex 0.974083 -1.340710 2.231988
vertex 0.847669 -1.166716 2.231988
vertex 0.000000 -1.442141 2.231988
endloop
endfacet
facet normal 0.000001 0.000000 1.000000
outer loop
vertex 0.000000 -1.442141 2.231988
vertex 0.000000 -1.657209 2.231988
vertex 0.974083 -1.340710 2.231988
endloop
endfacet
facet normal 0.000000 0.000000 1.000000
outer loop
vertex 0.974082 1.340710 2.231988
vertex 0.847669 1.166716 2.231988
vertex 1.371557 0.445646 2.231988
endloop
endfacet
facet normal 0.000000 0.000000 1.000000
outer loop
vertex 1.371557 0.445646 2.231988
vertex 1.576099 0.512106 2.231988
vertex 0.974082 1.340710 2.231988
endloop
endfacet
facet normal -0.000001 0.000000 1.000000
outer loop
vertex -1.576099 0.512106 2.231988
vertex -1.371557 0.445646 2.231988
vertex -0.847669 1.166716 2.231988
endloop
endfacet
facet normal 0.000000 0.000000 1.000000
outer loop
vertex -0.847669 1.166716 2.231988
vertex -0.974083 1.340710 2.231988
vertex -1.576099 0.512106 2.231988
endloop
endfacet
facet normal 0.000001 0.000000 1.000000
outer loop
vertex 1.576099 -0.512106 2.231988
vertex 1.371557 -0.445646 2.231988
vertex 0.847669 -1.166716 2.231988
endloop
endfacet
facet normal 0.000000 0.000000 1.000000
outer loop
vertex 0.847669 -1.166716 2.231988
vertex 0.974083 -1.340710 2.231988
vertex 1.576099 -0.512106 2.231988
endloop
endfacet
facet normal -0.000001 0.000000 1.000000
outer loop
vertex 0.000000 -1.657209 2.231988
vertex 0.000000 -1.442141 2.231988
vertex -0.847669 -1.166716 2.231988
endloop
endfacet
facet normal 0.000000 0.000000 1.000000
outer loop
vertex -0.847669 -1.166716 2.231988
vertex -0.974083 -1.340710 2.231988
vertex 0.000000 -1.657209 2.231988
endloop
endfacet
facet normal 0.000001 0.000000 1.000000
outer loop
vertex 0.000000 1.657209 2.231988
vertex 0.000000 1.442141 2.231988
vertex 0.847669 1.166716 2.231988
endloop
endfacet
facet normal 0.000000 0.000000 1.000000
outer loop
vertex 0.847669 1.166716 2.231988
vertex 0.974082 1.340710 2.231988
vertex 0.000000 1.657209 2.231988
endloop
endfacet
facet normal -0.000001 0.000000 1.000000
outer loop
vertex -0.974083 1.340710 2.231988
vertex -0.847669 1.166716 2.231988
vertex 0.000000 1.442141 2.231988
endloop
endfacet
facet normal 0.000000 0.000000 1.000000
outer loop
vertex 0.000000 1.442141 2.231988
vertex 0.000000 1.657209 2.231988
vertex -0.974083 1.340710 2.231988
endloop
endfacet
facet normal 0.784353 -0.569866 0.245036
outer loop
vertex -0.847669 1.166716 2.231988
vertex -1.371557 0.445646 2.231988
vertex -0.807443 0.262354 0.000000
endloop
endfacet
facet normal 0.784353 -0.569866 0.245036
outer loop
vertex -0.807443 0.262354 0.000000
vertex -0.499027 0.686852 0.000000
vertex -0.847669 1.166716 2.231988
endloop
endfacet
facet normal 0.969514 0.000000 0.245036
outer loop
vertex -1.371557 0.445646 2.231988
vertex -1.371557 -0.445646 2.231988
vertex -0.807443 -0.262354 0.000000
endloop
endfacet
facet normal 0.969514 0.000000 0.245036
outer loop
vertex -0.807443 -0.262354 0.000000
vertex -0.807443 0.262354 0.000000
vertex -1.371557 0.445646 2.231988
endloop
endfacet
facet normal 0.784353 0.569866 0.245036
outer loop
vertex -1.371557 -0.445646 2.231988
vertex -0.847669 -1.166716 2.231988
vertex -0.499027 -0.686852 0.000000
endloop
endfacet
facet normal 0.784353 0.569866 0.245036
outer loop
vertex -0.499027 -0.686852 0.000000
vertex -0.807443 -0.262354 0.000000
vertex -1.371557 -0.445646 2.231988
endloop
endfacet
facet normal 0.299596 0.922063 0.245036
outer loop
vertex -0.847669 -1.166716 2.231988
vertex 0.000000 -1.442141 2.231988
vertex 0.000000 -0.848996 0.000000
endloop
endfacet
facet normal 0.299596 0.922063 0.245036
outer loop
vertex 0.000000 -0.848996 0.000000
vertex -0.499027 -0.686852 0.000000
vertex -0.847669 -1.166716 2.231988
endloop
endfacet
facet normal -0.299596 0.922063 0.245036
outer loop
vertex 0.000000 -1.442141 2.231988
vertex 0.847669 -1.166716 2.231988
vertex 0.499027 -0.686852 0.000000
endloop
endfacet
facet normal -0.299596 0.922063 0.245036
outer loop
vertex 0.499027 -0.686852 0.000000
vertex 0.000000 -0.848996 0.000000
vertex 0.000000 -1.442141 2.231988
endloop
endfacet
facet normal -0.784354 0.569866 0.245036
outer loop
vertex 0.847669 -1.166716 2.231988
vertex 1.371557 -0.445646 2.231988
vertex 0.807443 -0.262354 0.000000
endloop
endfacet
facet normal -0.784353 0.569866 0.245036
outer loop
vertex 0.807443 -0.262354 0.000000
vertex 0.499027 -0.686852 0.000000
vertex 0.847669 -1.166716 2.231988
endloop
endfacet
facet normal -0.969514 0.000000 0.245036
outer loop
vertex 1.371557 -0.445646 2.231988
vertex 1.371557 0.445646 2.231988
vertex 0.807443 0.262354 0.000000
endloop
endfacet
facet normal -0.969514 0.000000 0.245036
outer loop
vertex 0.807443 0.262354 0.000000
vertex 0.807443 -0.262354 0.000000
vertex 1.371557 -0.445646 2.231988
endloop
endfacet
facet normal -0.784353 -0.569866 0.245036
outer loop
vertex 1.371557 0.445646 2.231988
vertex 0.847669 1.166716 2.231988
vertex 0.499027 0.686852 0.000000
endloop
endfacet
facet normal -0.784353 -0.569866 0.245036
outer loop
vertex 0.499027 0.686852 0.000000
vertex 0.807443 0.262354 0.000000
vertex 1.371557 0.445646 2.231988
endloop
endfacet
facet normal -0.299596 -0.922063 0.245036
outer loop
vertex 0.847669 1.166716 2.231988
vertex 0.000000 1.442141 2.231988
vertex -0.000000 0.848996 0.000000
endloop
endfacet
facet normal -0.299596 -0.922063 0.245036
outer loop
vertex -0.000000 0.848996 0.000000
vertex 0.499027 0.686852 0.000000
vertex 0.847669 1.166716 2.231988
endloop
endfacet
facet normal 0.299596 -0.922063 0.245036
outer loop
vertex 0.000000 1.442141 2.231988
vertex -0.847669 1.166716 2.231988
vertex -0.499027 0.686852 0.000000
endloop
endfacet
facet normal 0.299596 -0.922063 0.245036
outer loop
vertex -0.499027 0.686852 0.000000
vertex -0.000000 0.848996 0.000000
vertex 0.000000 1.442141 2.231988
endloop
endfacet
facet normal -1.000000 -0.000000 0.000000
outer loop
vertex -0.951056 -0.309017 0.000000
vertex -0.951057 0.309017 0.000000
vertex -0.951057 0.309017 -0.105153
endloop
endfacet
facet normal -1.000000 0.000000 0.000000
outer loop
vertex -0.951057 0.309017 -0.105153
vertex -0.951056 -0.309017 -0.105153
vertex -0.951056 -0.309017 0.000000
endloop
endfacet
facet normal 1.000000 0.000000 0.000000
outer loop
vertex 0.951056 0.309017 0.000000
vertex 0.951056 -0.309017 0.000000
vertex 0.951056 -0.309017 -0.105153
endloop
endfacet
facet normal 1.000000 0.000000 0.000000
outer loop
vertex 0.951056 -0.309017 -0.105153
vertex 0.951056 0.309017 -0.105153
vertex 0.951056 0.309017 0.000000
endloop
endfacet
facet normal -0.309017 0.951056 0.000000
outer loop
vertex -0.587785 0.809017 0.000000
vertex 0.000000 1.000000 0.000000
vertex 0.000000 1.000000 -0.105153
endloop
endfacet
facet normal -0.309017 0.951056 0.000000
outer loop
vertex 0.000000 1.000000 -0.105153
vertex -0.587785 0.809017 -0.105153
vertex -0.587785 0.809017 0.000000
endloop
endfacet
facet normal 0.309017 -0.951056 0.000000
outer loop
vertex 0.587785 -0.809017 0.000000
vertex 0.000000 -1.000000 0.000000
vertex 0.000000 -1.000000 -0.105153
endloop
endfacet
facet normal 0.309017 -0.951057 0.000000
outer loop
vertex 0.000000 -1.000000 -0.105153
vertex 0.587785 -0.809017 -0.105153
vertex 0.587785 -0.809017 0.000000
endloop
endfacet
facet normal -0.809017 -0.587785 0.000000
outer loop
vertex -0.587785 -0.809017 0.000000
vertex -0.951056 -0.309017 0.000000
vertex -0.951056 -0.309017 -0.105153
endloop
endfacet
facet normal -0.809017 -0.587785 0.000000
outer loop
vertex -0.951056 -0.309017 -0.105153
vertex -0.587785 -0.809017 -0.105153
vertex -0.587785 -0.809017 0.000000
endloop
endfacet
facet normal 0.809017 0.587785 0.000000
outer loop
vertex 0.587785 0.809017 0.000000
vertex 0.951056 0.309017 0.000000
vertex 0.951056 0.309017 -0.105153
endloop
endfacet
facet normal 0.809017 0.587785 0.000000
outer loop
vertex 0.951056 0.309017 -0.105153
vertex 0.587785 0.809017 -0.105153
vertex 0.587785 0.809017 0.000000
endloop
endfacet
facet normal -0.809017 0.587785 0.000000
outer loop
vertex -0.951057 0.309017 0.000000
vertex -0.587785 0.809017 0.000000
vertex -0.587785 0.809017 -0.105153
endloop
endfacet
facet normal -0.809017 0.587785 0.000000
outer loop
vertex -0.587785 0.809017 -0.105153
vertex -0.951057 0.309017 -0.105153
vertex -0.951057 0.309017 0.000000
endloop
endfacet
facet normal 0.809017 -0.587785 0.000000
outer loop
vertex 0.951056 -0.309017 0.000000
vertex 0.587785 -0.809017 0.000000
vertex 0.587785 -0.809017 -0.105153
endloop
endfacet
facet normal 0.809017 -0.587785 0.000000
outer loop
vertex 0.587785 -0.809017 -0.105153
vertex 0.951056 -0.309017 -0.105153
vertex 0.951056 -0.309017 0.000000
endloop
endfacet
facet normal -0.309017 -0.951057 0.000000
outer loop
vertex 0.000000 -1.000000 0.000000
vertex -0.587785 -0.809017 0.000000
vertex -0.587785 -0.809017 -0.105153
endloop
endfacet
facet normal -0.309017 -0.951057 0.000000
outer loop
vertex -0.587785 -0.809017 -0.105153
vertex 0.000000 -1.000000 -0.105153
vertex 0.000000 -1.000000 0.000000
endloop
endfacet
facet normal 0.309017 0.951057 0.000000
outer loop
vertex 0.000000 1.000000 0.000000
vertex 0.587785 0.809017 0.000000
vertex 0.587785 0.809017 -0.105153
endloop
endfacet
facet normal 0.309017 0.951057 0.000000
outer loop
vertex 0.587785 0.809017 -0.105153
vertex 0.000000 1.000000 -0.105153
vertex 0.000000 1.000000 0.000000
endloop
endfacet
facet normal 0.000000 0.000000 -1.000000
outer loop
vertex -0.587785 0.809017 -0.105153
vertex -0.000000 -0.000000 -0.105153
vertex -0.951057 0.309017 -0.105153
endloop
endfacet
facet normal 0.000000 0.000000 -1.000000
outer loop
vertex -0.951057 0.309017 -0.105153
vertex -0.000000 -0.000000 -0.105153
vertex -0.951056 -0.309017 -0.105153
endloop
endfacet
facet normal -0.000000 0.000000 -1.000000
outer loop
vertex -0.951056 -0.309017 -0.105153
vertex -0.000000 -0.000000 -0.105153
vertex -0.587785 -0.809017 -0.105153
endloop
endfacet
facet normal 0.000000 0.000000 -1.000000
outer loop
vertex -0.587785 -0.809017 -0.105153
vertex -0.000000 -0.000000 -0.105153
vertex 0.000000 -1.000000 -0.105153
endloop
endfacet
facet normal 0.000000 0.000000 -1.000000
outer loop
vertex 0.000000 -1.000000 -0.105153
vertex -0.000000 -0.000000 -0.105153
vertex 0.587785 -0.809017 -0.105153
endloop
endfacet
facet normal 0.000000 0.000000 -1.000000
outer loop
vertex 0.951056 -0.309017 -0.105153
vertex 0.587785 -0.809017 -0.105153
vertex -0.000000 -0.000000 -0.105153
endloop
endfacet
facet normal 0.000000 0.000000 -1.000000
outer loop
vertex 0.000000 1.000000 -0.105153
vertex -0.000000 -0.000000 -0.105153
vertex -0.587785 0.809017 -0.105153
endloop
endfacet
facet normal -0.000000 0.000000 -1.000000
outer loop
vertex 0.587785 0.809017 -0.105153
vertex -0.000000 -0.000000 -0.105153
vertex 0.000000 1.000000 -0.105153
endloop
endfacet
facet normal 0.000000 0.000000 -1.000000
outer loop
vertex 0.951056 0.309017 -0.105153
vertex -0.000000 -0.000000 -0.105153
vertex 0.587785 0.809017 -0.105153
endloop
endfacet
facet normal -0.000000 0.000000 -1.000000
outer loop
vertex 0.951056 -0.309017 -0.105153
vertex -0.000000 -0.000000 -0.105153
vertex 0.951056 0.309017 -0.105153
endloop
endfacet
facet normal 0.000000 0.000000 1.000000
outer loop
vertex -0.807443 0.262354 0.000000
vertex -0.807443 -0.262354 0.000000
vertex 0.000000 0.000000 0.000000
endloop
endfacet
facet normal 0.000000 0.000000 1.000000
outer loop
vertex -0.499027 0.686852 0.000000
vertex -0.807443 0.262354 0.000000
vertex 0.000000 0.000000 0.000000
endloop
endfacet
facet normal 0.000000 0.000000 1.000000
outer loop
vertex -0.000000 0.848996 0.000000
vertex -0.499027 0.686852 0.000000
vertex 0.000000 0.000000 0.000000
endloop
endfacet
facet normal 0.000000 0.000000 1.000000
outer loop
vertex 0.499027 0.686852 0.000000
vertex -0.000000 0.848996 0.000000
vertex 0.000000 0.000000 0.000000
endloop
endfacet
facet normal 0.000000 0.000000 1.000000
outer loop
vertex 0.807443 0.262354 0.000000
vertex 0.499027 0.686852 0.000000
vertex 0.000000 0.000000 0.000000
endloop
endfacet
facet normal 0.000000 0.000000 1.000000
outer loop
vertex 0.807443 -0.262354 0.000000
vertex 0.807443 0.262354 0.000000
vertex 0.000000 0.000000 0.000000
endloop
endfacet
facet normal 0.000000 0.000000 1.000000
outer loop
vertex 0.499027 -0.686852 0.000000
vertex 0.807443 -0.262354 0.000000
vertex 0.000000 0.000000 0.000000
endloop
endfacet
facet normal 0.000000 0.000000 1.000000
outer loop
vertex 0.000000 -0.848996 0.000000
vertex 0.499027 -0.686852 0.000000
vertex 0.000000 0.000000 0.000000
endloop
endfacet
facet normal 0.000000 0.000000 1.000000
outer loop
vertex 0.000000 -0.848996 0.000000
vertex 0.000000 0.000000 0.000000
vertex -0.499027 -0.686852 0.000000
endloop
endfacet
facet normal 0.000000 0.000000 1.000000
outer loop
vertex -0.807443 -0.262354 0.000000
vertex -0.499027 -0.686852 0.000000
vertex 0.000000 0.000000 0.000000
endloop
endfacet
endsolid Exported from Blender-2.78 (sub 0)
