solid Exported from Blender-2.78 (sub 0)
facet normal 0.000000 0.968273 -0.249894
outer loop
vertex -1.838308 1.838308 2.235704
vertex 1.838308 1.838308 2.235704
vertex 1.261312 1.261312 0.000000
endloop
endfacet
facet normal 0.000000 0.968273 -0.249894
outer loop
vertex 1.261312 1.261312 0.000000
vertex -1.261312 1.261312 0.000000
vertex -1.838308 1.838308 2.235704
endloop
endfacet
facet normal 0.000000 0.000000 1.000000
outer loop
vertex -1.598057 -1.598057 2.235704
vertex -1.838308 -1.838308 2.235704
vertex 1.838308 -1.838308 2.235704
endloop
endfacet
facet normal 0.000000 0.000000 1.000000
outer loop
vertex 1.838308 -1.838308 2.235704
vertex 1.598057 -1.598057 2.235704
vertex -1.598057 -1.598057 2.235704
endloop
endfacet
facet normal 0.000000 0.966034 0.258416
outer loop
vertex -1.077809 -1.077809 0.290874
vertex -1.598057 -1.598057 2.235704
vertex 1.598057 -1.598057 2.235704
endloop
endfacet
facet normal 0.000000 0.966034 0.258417
outer loop
vertex 1.598057 -1.598057 2.235704
vertex 1.077809 -1.077809 0.290874
vertex -1.077809 -1.077809 0.290874
endloop
endfacet
facet normal -0.966034 0.000000 0.258417
outer loop
vertex 1.077809 -1.077809 0.290874
vertex 1.598057 -1.598057 2.235704
vertex 1.598057 1.598057 2.235704
endloop
endfacet
facet normal -0.966034 0.000000 0.258416
outer loop
vertex 1.598057 1.598057 2.235704
vertex 1.077809 1.077809 0.290874
vertex 1.077809 -1.077809 0.290874
endloop
endfacet
facet normal 0.000000 -0.966034 0.258416
outer loop
vertex 1.077809 1.077809 0.290874
vertex 1.598057 1.598057 2.235704
vertex -1.598057 1.598057 2.235704
endloop
endfacet
facet normal 0.000000 -0.966034 0.258417
outer loop
vertex -1.598057 1.598057 2.235704
vertex -1.077809 1.077809 0.290874
vertex 1.077809 1.077809 0.290874
endloop
endfacet
facet normal 0.966034 0.000000 0.258417
outer loop
vertex -1.077809 1.077809 0.290874
vertex -1.598057 1.598057 2.235704
vertex -1.598057 -1.598057 2.235704
endloop
endfacet
facet normal 0.966034 0.000000 0.258416
outer loop
vertex -1.598057 -1.598057 2.235704
vertex -1.077809 -1.077809 0.290874
vertex -1.077809 1.077809 0.290874
endloop
endfacet
facet normal 0.000000 0.000000 1.000000
outer loop
vertex 1.598057 -1.598057 2.235704
vertex 1.838308 -1.838308 2.235704
vertex 1.838308 1.838308 2.235704
endloop
endfacet
facet normal 0.000000 0.000000 1.000000
outer loop
vertex 1.838308 1.838308 2.235704
vertex 1.598057 1.598057 2.235704
vertex 1.598057 -1.598057 2.235704
endloop
endfacet
facet normal 0.000000 0.000000 1.000000
outer loop
vertex 1.598057 1.598057 2.235704
vertex 1.838308 1.838308 2.235704
vertex -1.838308 1.838308 2.235704
endloop
endfacet
facet normal 0.000000 0.000000 1.000000
outer loop
vertex -1.838308 1.838308 2.235704
vertex -1.598057 1.598057 2.235704
vertex 1.598057 1.598057 2.235704
endloop
endfacet
facet normal 0.000000 0.000000 1.000000
outer loop
vertex -1.598057 1.598057 2.235704
vertex -1.838308 1.838308 2.235704
vertex -1.838308 -1.838308 2.235704
endloop
endfacet
facet normal 0.000000 0.000000 1.000000
outer loop
vertex -1.838308 -1.838308 2.235704
vertex -1.598057 -1.598057 2.235704
vertex -1.598057 1.598057 2.235704
endloop
endfacet
facet normal 0.968273 0.000000 -0.249894
outer loop
vertex 1.838308 1.838308 2.235704
vertex 1.838308 -1.838308 2.235704
vertex 1.261312 -1.261312 0.000000
endloop
endfacet
facet normal 0.968273 0.000000 -0.249894
outer loop
vertex 1.261312 -1.261312 0.000000
vertex 1.261312 1.261312 0.000000
vertex 1.838308 1.838308 2.235704
endloop
endfacet
facet normal 0.000000 -0.968273 -0.249894
outer loop
vertex 1.838308 -1.838308 2.235704
vertex -1.838308 -1.838308 2.235704
vertex -1.261312 -1.261312 0.000000
endloop
endfacet
facet normal 0.000000 -0.968273 -0.249894
outer loop
vertex -1.261312 -1.261312 0.000000
vertex 1.261312 -1.261312 0.000000
vertex 1.838308 -1.838308 2.235704
endloop
endfacet
facet normal 0.000000 0.000000 1.000000
outer loop
vertex -1.077809 -1.077809 0.290874
vertex 1.077809 -1.077809 0.290874
vertex 1.077809 1.077809 0.290874
endloop
endfacet
facet normal 0.000000 0.000000 1.000000
outer loop
vertex 1.077809 1.077809 0.290874
vertex -1.077809 1.077809 0.290874
vertex -1.077809 -1.077809 0.290874
endloop
endfacet
facet normal -0.968273 0.000000 -0.249894
outer loop
vertex -1.838308 -1.838308 2.235704
vertex -1.838308 1.838308 2.235704
vertex -1.261312 1.261312 0.000000
endloop
endfacet
facet normal -0.968273 0.000000 -0.249894
outer loop
vertex -1.261312 1.261312 0.000000
vertex -1.261312 -1.261312 0.000000
vertex -1.838308 -1.838308 2.235704
endloop
endfacet
facet normal 0.000000 0.000000 -1.000000
outer loop
vertex 1.000000 1.000000 0.000000
vertex 1.261312 1.261312 0.000000
vertex 1.261312 -1.261312 0.000000
endloop
endfacet
facet normal 0.000000 0.000000 -1.000000
outer loop
vertex 1.261312 -1.261312 0.000000
vertex 1.000000 -1.000000 0.000000
vertex 1.000000 1.000000 0.000000
endloop
endfacet
facet normal 0.000000 0.000000 -1.000000
outer loop
vertex -1.000000 -1.000000 0.000000
vertex -1.261312 -1.261312 0.000000
vertex -1.261312 1.261312 0.000000
endloop
endfacet
facet normal 0.000000 0.000000 -1.000000
outer loop
vertex -1.261312 1.261312 0.000000
vertex -1.000000 1.000000 0.000000
vertex -1.000000 -1.000000 0.000000
endloop
endfacet
facet normal 0.000000 0.000000 -1.000000
outer loop
vertex -1.261312 -1.261312 0.000000
vertex -1.000000 -1.000000 0.000000
vertex 1.000000 -1.000000 0.000000
endloop
endfacet
facet normal 0.000000 0.000000 -1.000000
outer loop
vertex 1.000000 -1.000000 0.000000
vertex 1.261312 -1.261312 0.000000
vertex -1.261312 -1.261312 0.000000
endloop
endfacet
facet normal 0.000000 0.000000 -1.000000
outer loop
vertex -1.000000 1.000000 0.000000
vertex -1.261312 1.261312 0.000000
vertex 1.261312 1.261312 0.000000
endloop
endfacet
facet normal 0.000000 0.000000 -1.000000
outer loop
vertex 1.261312 1.261312 0.000000
vertex 1.000000 1.000000 0.000000
vertex -1.000000 1.000000 0.000000
endloop
endfacet
facet normal 0.000000 0.000000 -1.000000
outer loop
vertex 1.000000 -1.000000 0.000000
vertex -1.000000 -1.000000 0.000000
vertex -1.000000 1.000000 0.000000
endloop
endfacet
facet normal 0.000000 0.000000 -1.000000
outer loop
vertex -1.000000 1.000000 0.000000
vertex 1.000000 1.000000 0.000000
vertex 1.000000 -1.000000 0.000000
endloop
endfacet
endsolid Exported from Blender-2.78 (sub 0)
