solid Exported from Blender-2.78 (sub 0)
facet normal 0.000000 -0.249894 0.968273
outer loop
vertex 1.838308 2.235704 1.838308
vertex -1.838308 2.235704 1.838308
vertex -1.261312 0.000000 1.261312
endloop
endfacet
facet normal 0.000000 -0.249894 0.968273
outer loop
vertex -1.261312 0.000000 1.261312
vertex 1.261312 0.000000 1.261312
vertex 1.838308 2.235704 1.838308
endloop
endfacet
facet normal 0.000000 1.000000 0.000000
outer loop
vertex 1.598057 2.235704 -1.598057
vertex 1.838308 2.235704 -1.838308
vertex -1.838308 2.235704 -1.838308
endloop
endfacet
facet normal 0.000000 1.000000 0.000000
outer loop
vertex -1.838308 2.235704 -1.838308
vertex -1.598057 2.235704 -1.598057
vertex 1.598057 2.235704 -1.598057
endloop
endfacet
facet normal 0.000000 0.258417 0.966034
outer loop
vertex 1.077809 0.290874 -1.077809
vertex 1.598057 2.235704 -1.598057
vertex -1.598057 2.235704 -1.598057
endloop
endfacet
facet normal 0.000000 0.258416 0.966034
outer loop
vertex -1.598057 2.235704 -1.598057
vertex -1.077809 0.290874 -1.077809
vertex 1.077809 0.290874 -1.077809
endloop
endfacet
facet normal 0.966034 0.258416 0.000000
outer loop
vertex -1.077809 0.290874 -1.077809
vertex -1.598057 2.235704 -1.598057
vertex -1.598057 2.235704 1.598057
endloop
endfacet
facet normal 0.966034 0.258417 0.000000
outer loop
vertex -1.598057 2.235704 1.598057
vertex -1.077809 0.290874 1.077809
vertex -1.077809 0.290874 -1.077809
endloop
endfacet
facet normal 0.000000 0.258417 -0.966034
outer loop
vertex -1.077809 0.290874 1.077809
vertex -1.598057 2.235704 1.598057
vertex 1.598057 2.235704 1.598057
endloop
endfacet
facet normal 0.000000 0.258416 -0.966034
outer loop
vertex 1.598057 2.235704 1.598057
vertex 1.077809 0.290874 1.077809
vertex -1.077809 0.290874 1.077809
endloop
endfacet
facet normal -0.966034 0.258416 0.000000
outer loop
vertex 1.077809 0.290874 1.077809
vertex 1.598057 2.235704 1.598057
vertex 1.598057 2.235704 -1.598057
endloop
endfacet
facet normal -0.966034 0.258417 0.000000
outer loop
vertex 1.598057 2.235704 -1.598057
vertex 1.077809 0.290874 -1.077809
vertex 1.077809 0.290874 1.077809
endloop
endfacet
facet normal 0.000000 1.000000 0.000000
outer loop
vertex -1.598057 2.235704 -1.598057
vertex -1.838308 2.235704 -1.838308
vertex -1.838308 2.235704 1.838308
endloop
endfacet
facet normal 0.000000 1.000000 0.000000
outer loop
vertex -1.838308 2.235704 1.838308
vertex -1.598057 2.235704 1.598057
vertex -1.598057 2.235704 -1.598057
endloop
endfacet
facet normal 0.000000 1.000000 0.000000
outer loop
vertex -1.598057 2.235704 1.598057
vertex -1.838308 2.235704 1.838308
vertex 1.838308 2.235704 1.838308
endloop
endfacet
facet normal 0.000000 1.000000 0.000000
outer loop
vertex 1.838308 2.235704 1.838308
vertex 1.598057 2.235704 1.598057
vertex -1.598057 2.235704 1.598057
endloop
endfacet
facet normal 0.000000 1.000000 0.000000
outer loop
vertex 1.598057 2.235704 1.598057
vertex 1.838308 2.235704 1.838308
vertex 1.838308 2.235704 -1.838308
endloop
endfacet
facet normal 0.000000 1.000000 0.000000
outer loop
vertex 1.838308 2.235704 -1.838308
vertex 1.598057 2.235704 -1.598057
vertex 1.598057 2.235704 1.598057
endloop
endfacet
facet normal -0.968273 -0.249894 0.000000
outer loop
vertex -1.838308 2.235704 1.838308
vertex -1.838308 2.235704 -1.838308
vertex -1.261312 0.000000 -1.261312
endloop
endfacet
facet normal -0.968273 -0.249894 0.000000
outer loop
vertex -1.261312 0.000000 -1.261312
vertex -1.261312 0.000000 1.261312
vertex -1.838308 2.235704 1.838308
endloop
endfacet
facet normal 0.000000 -0.249894 -0.968273
outer loop
vertex -1.838308 2.235704 -1.838308
vertex 1.838308 2.235704 -1.838308
vertex 1.261312 0.000000 -1.261312
endloop
endfacet
facet normal 0.000000 -0.249894 -0.968273
outer loop
vertex 1.261312 0.000000 -1.261312
vertex -1.261312 0.000000 -1.261312
vertex -1.838308 2.235704 -1.838308
endloop
endfacet
facet normal 0.000000 1.000000 0.000000
outer loop
vertex 1.077809 0.290874 -1.077809
vertex -1.077809 0.290874 -1.077809
vertex -1.077809 0.290874 1.077809
endloop
endfacet
facet normal 0.000000 1.000000 0.000000
outer loop
vertex -1.077809 0.290874 1.077809
vertex 1.077809 0.290874 1.077809
vertex 1.077809 0.290874 -1.077809
endloop
endfacet
facet normal 0.968273 -0.249894 0.000000
outer loop
vertex 1.838308 2.235704 -1.838308
vertex 1.838308 2.235704 1.838308
vertex 1.261312 0.000000 1.261312
endloop
endfacet
facet normal 0.968273 -0.249894 0.000000
outer loop
vertex 1.261312 0.000000 1.261312
vertex 1.261312 0.000000 -1.261312
vertex 1.838308 2.235704 -1.838308
endloop
endfacet
facet normal 0.000000 -1.000000 0.000000
outer loop
vertex -1.000000 0.000000 1.000000
vertex -1.261312 0.000000 1.261312
vertex -1.261312 0.000000 -1.261312
endloop
endfacet
facet normal 0.000000 -1.000000 0.000000
outer loop
vertex -1.261312 0.000000 -1.261312
vertex -1.000000 0.000000 -1.000000
vertex -1.000000 0.000000 1.000000
endloop
endfacet
facet normal 0.000000 -1.000000 0.000000
outer loop
vertex 1.000000 0.000000 -1.000000
vertex 1.261312 0.000000 -1.261312
vertex 1.261312 0.000000 1.261312
endloop
endfacet
facet normal 0.000000 -1.000000 0.000000
outer loop
vertex 1.261312 0.000000 1.261312
vertex 1.000000 0.000000 1.000000
vertex 1.000000 0.000000 -1.000000
endloop
endfacet
facet normal 0.000000 -1.000000 0.000000
outer loop
vertex 1.261312 0.000000 -1.261312
vertex 1.000000 0.000000 -1.000000
vertex -1.000000 0.000000 -1.000000
endloop
endfacet
facet normal 0.000000 -1.000000 0.000000
outer loop
vertex -1.000000 0.000000 -1.000000
vertex -1.261312 0.000000 -1.261312
vertex 1.261312 0.000000 -1.261312
endloop
endfacet
facet normal 0.000000 -1.000000 0.000000
outer loop
vertex 1.000000 0.000000 1.000000
vertex 1.261312 0.000000 1.261312
vertex -1.261312 0.000000 1.261312
endloop
endfacet
facet normal 0.000000 -1.000000 0.000000
outer loop
vertex -1.261312 0.000000 1.261312
vertex -1.000000 0.000000 1.000000
vertex 1.000000 0.000000 1.000000
endloop
endfacet
facet normal 0.000000 -1.000000 0.000000
outer loop
vertex -1.000000 0.000000 -1.000000
vertex 1.000000 0.000000 -1.000000
vertex 1.000000 0.000000 1.000000
endloop
endfacet
facet normal 0.000000 -1.000000 0.000000
outer loop
vertex 1.000000 0.000000 1.000000
vertex -1.000000 0.000000 1.000000
vertex -1.000000 0.000000 -1.000000
endloop
endfacet
endsolid Exported from Blender-2.78 (sub 0)
