solid Exported from Blender-2.78 (sub 0)
facet normal 0.906849 -0.421456 0.000000
outer loop
vertex 0.951056 0.000000 -0.309017
vertex 1.229159 0.598394 -0.399378
vertex 1.229159 0.598394 0.399378
endloop
endfacet
facet normal 0.906849 -0.421456 -0.000000
outer loop
vertex 1.229159 0.598394 0.399378
vertex 0.951057 0.000000 0.309017
vertex 0.951056 0.000000 -0.309017
endloop
endfacet
facet normal -0.906849 -0.421456 0.000000
outer loop
vertex -0.951056 0.000000 0.309017
vertex -1.229159 0.598394 0.399378
vertex -1.229159 0.598394 -0.399378
endloop
endfacet
facet normal -0.906849 -0.421456 0.000000
outer loop
vertex -1.229159 0.598394 -0.399378
vertex -0.951056 0.000000 -0.309017
vertex -0.951056 0.000000 0.309017
endloop
endfacet
facet normal 0.280232 -0.421456 0.862464
outer loop
vertex -0.000000 0.598394 1.292414
vertex 0.000000 0.000000 1.000000
vertex 0.587785 0.000000 0.809017
endloop
endfacet
facet normal 0.280232 -0.421456 0.862465
outer loop
vertex 0.587785 0.000000 0.809017
vertex 0.759662 0.598394 1.045585
vertex -0.000000 0.598394 1.292414
endloop
endfacet
facet normal -0.280232 -0.421456 -0.862465
outer loop
vertex -0.587785 0.000000 -0.809017
vertex -0.759662 0.598394 -1.045585
vertex -0.000000 0.598394 -1.292414
endloop
endfacet
facet normal -0.280232 -0.421456 -0.862465
outer loop
vertex -0.000000 0.598394 -1.292414
vertex -0.000000 0.000000 -1.000000
vertex -0.587785 0.000000 -0.809017
endloop
endfacet
facet normal 0.733656 -0.421456 -0.533032
outer loop
vertex 0.587785 0.000000 -0.809017
vertex 0.759662 0.598394 -1.045585
vertex 1.229159 0.598394 -0.399378
endloop
endfacet
facet normal 0.733656 -0.421456 -0.533032
outer loop
vertex 1.229159 0.598394 -0.399378
vertex 0.951056 0.000000 -0.309017
vertex 0.587785 0.000000 -0.809017
endloop
endfacet
facet normal -0.733656 -0.421456 0.533032
outer loop
vertex -0.587785 0.000000 0.809017
vertex -0.759661 0.598394 1.045585
vertex -1.229159 0.598394 0.399378
endloop
endfacet
facet normal -0.733656 -0.421456 0.533033
outer loop
vertex -1.229159 0.598394 0.399378
vertex -0.951056 0.000000 0.309017
vertex -0.587785 0.000000 0.809017
endloop
endfacet
facet normal 0.733656 -0.421456 0.533032
outer loop
vertex 0.951057 0.000000 0.309017
vertex 1.229159 0.598394 0.399378
vertex 0.759662 0.598394 1.045585
endloop
endfacet
facet normal 0.733656 -0.421456 0.533032
outer loop
vertex 0.759662 0.598394 1.045585
vertex 0.587785 0.000000 0.809017
vertex 0.951057 0.000000 0.309017
endloop
endfacet
facet normal -0.733656 -0.421456 -0.533032
outer loop
vertex -0.951056 0.000000 -0.309017
vertex -1.229159 0.598394 -0.399378
vertex -0.759662 0.598394 -1.045585
endloop
endfacet
facet normal -0.733656 -0.421456 -0.533032
outer loop
vertex -0.759662 0.598394 -1.045585
vertex -0.587785 0.000000 -0.809017
vertex -0.951056 0.000000 -0.309017
endloop
endfacet
facet normal 0.280232 -0.421456 -0.862465
outer loop
vertex -0.000000 0.000000 -1.000000
vertex -0.000000 0.598394 -1.292414
vertex 0.759662 0.598394 -1.045585
endloop
endfacet
facet normal 0.280232 -0.421456 -0.862465
outer loop
vertex 0.759662 0.598394 -1.045585
vertex 0.587785 0.000000 -0.809017
vertex -0.000000 0.000000 -1.000000
endloop
endfacet
facet normal -0.280232 -0.421456 0.862465
outer loop
vertex 0.000000 0.000000 1.000000
vertex -0.000000 0.598394 1.292414
vertex -0.759661 0.598394 1.045585
endloop
endfacet
facet normal -0.280231 -0.421456 0.862465
outer loop
vertex -0.759661 0.598394 1.045585
vertex -0.587785 0.000000 0.809017
vertex 0.000000 0.000000 1.000000
endloop
endfacet
facet normal -0.303093 -0.194859 0.932826
outer loop
vertex -0.000000 0.598394 1.292414
vertex -0.000000 1.177433 1.413370
vertex -0.830758 1.177433 1.143440
endloop
endfacet
facet normal -0.303094 -0.194859 0.932826
outer loop
vertex -0.830758 1.177433 1.143440
vertex -0.759661 0.598394 1.045585
vertex -0.000000 0.598394 1.292414
endloop
endfacet
facet normal 0.980831 -0.194859 0.000000
outer loop
vertex 1.229159 0.598394 -0.399378
vertex 1.344194 1.177433 -0.436755
vertex 1.344194 1.177433 0.436755
endloop
endfacet
facet normal 0.980832 -0.194858 0.000000
outer loop
vertex 1.344194 1.177433 0.436755
vertex 1.229159 0.598394 0.399378
vertex 1.229159 0.598394 -0.399378
endloop
endfacet
facet normal -0.980831 -0.194859 0.000000
outer loop
vertex -1.229159 0.598394 0.399378
vertex -1.344194 1.177433 0.436755
vertex -1.344194 1.177433 -0.436755
endloop
endfacet
facet normal -0.980831 -0.194858 0.000000
outer loop
vertex -1.344194 1.177433 -0.436755
vertex -1.229159 0.598394 -0.399378
vertex -1.229159 0.598394 0.399378
endloop
endfacet
facet normal 0.303094 -0.194859 0.932826
outer loop
vertex 0.759662 0.598394 1.045585
vertex 0.830758 1.177433 1.143440
vertex -0.000000 1.177433 1.413370
endloop
endfacet
facet normal 0.303094 -0.194859 0.932826
outer loop
vertex -0.000000 1.177433 1.413370
vertex -0.000000 0.598394 1.292414
vertex 0.759662 0.598394 1.045585
endloop
endfacet
facet normal -0.303094 -0.194859 -0.932826
outer loop
vertex -0.759662 0.598394 -1.045585
vertex -0.830758 1.177433 -1.143440
vertex -0.000000 1.177433 -1.413370
endloop
endfacet
facet normal -0.303093 -0.194859 -0.932826
outer loop
vertex -0.000000 1.177433 -1.413370
vertex -0.000000 0.598394 -1.292414
vertex -0.759662 0.598394 -1.045585
endloop
endfacet
facet normal 0.793509 -0.194859 -0.576518
outer loop
vertex 0.759662 0.598394 -1.045585
vertex 0.830758 1.177433 -1.143440
vertex 1.344194 1.177433 -0.436755
endloop
endfacet
facet normal 0.793509 -0.194859 -0.576518
outer loop
vertex 1.344194 1.177433 -0.436755
vertex 1.229159 0.598394 -0.399378
vertex 0.759662 0.598394 -1.045585
endloop
endfacet
facet normal -0.793509 -0.194859 0.576518
outer loop
vertex -0.759661 0.598394 1.045585
vertex -0.830758 1.177433 1.143440
vertex -1.344194 1.177433 0.436755
endloop
endfacet
facet normal -0.793509 -0.194859 0.576518
outer loop
vertex -1.344194 1.177433 0.436755
vertex -1.229159 0.598394 0.399378
vertex -0.759661 0.598394 1.045585
endloop
endfacet
facet normal 0.793509 -0.194858 0.576518
outer loop
vertex 1.229159 0.598394 0.399378
vertex 1.344194 1.177433 0.436755
vertex 0.830758 1.177433 1.143440
endloop
endfacet
facet normal 0.793509 -0.194859 0.576518
outer loop
vertex 0.830758 1.177433 1.143440
vertex 0.759662 0.598394 1.045585
vertex 1.229159 0.598394 0.399378
endloop
endfacet
facet normal -0.793509 -0.194858 -0.576518
outer loop
vertex -1.229159 0.598394 -0.399378
vertex -1.344194 1.177433 -0.436755
vertex -0.830758 1.177433 -1.143440
endloop
endfacet
facet normal -0.793509 -0.194859 -0.576518
outer loop
vertex -0.830758 1.177433 -1.143440
vertex -0.759662 0.598394 -1.045585
vertex -1.229159 0.598394 -0.399378
endloop
endfacet
facet normal 0.303093 -0.194859 -0.932826
outer loop
vertex -0.000000 0.598394 -1.292414
vertex -0.000000 1.177433 -1.413370
vertex 0.830758 1.177433 -1.143440
endloop
endfacet
facet normal 0.303093 -0.194859 -0.932826
outer loop
vertex 0.830758 1.177433 -1.143440
vertex 0.759662 0.598394 -1.045585
vertex -0.000000 0.598394 -1.292414
endloop
endfacet
facet normal -0.809017 0.000000 -0.587785
outer loop
vertex -1.344194 1.177433 -0.436755
vertex -1.344194 1.797848 -0.436755
vertex -0.830758 1.797848 -1.143440
endloop
endfacet
facet normal -0.809017 0.000000 -0.587785
outer loop
vertex -0.830758 1.797848 -1.143440
vertex -0.830758 1.177433 -1.143440
vertex -1.344194 1.177433 -0.436755
endloop
endfacet
facet normal 0.309017 0.000000 -0.951057
outer loop
vertex -0.000000 1.177433 -1.413370
vertex -0.000000 1.797848 -1.413370
vertex 0.830758 1.797848 -1.143440
endloop
endfacet
facet normal 0.309017 0.000000 -0.951057
outer loop
vertex 0.830758 1.797848 -1.143440
vertex 0.830758 1.177433 -1.143440
vertex -0.000000 1.177433 -1.413370
endloop
endfacet
facet normal -0.309017 0.000000 0.951057
outer loop
vertex -0.000000 1.177433 1.413370
vertex -0.000000 1.797848 1.413370
vertex -0.830758 1.797848 1.143440
endloop
endfacet
facet normal -0.309017 0.000000 0.951057
outer loop
vertex -0.830758 1.797848 1.143440
vertex -0.830758 1.177433 1.143440
vertex -0.000000 1.177433 1.413370
endloop
endfacet
facet normal 1.000000 0.000000 0.000000
outer loop
vertex 1.344194 1.177433 -0.436755
vertex 1.344194 1.797848 -0.436755
vertex 1.344194 1.797848 0.436755
endloop
endfacet
facet normal 1.000000 0.000000 0.000000
outer loop
vertex 1.344194 1.797848 0.436755
vertex 1.344194 1.177433 0.436755
vertex 1.344194 1.177433 -0.436755
endloop
endfacet
facet normal -1.000000 0.000000 0.000000
outer loop
vertex -1.344194 1.177433 0.436755
vertex -1.344194 1.797848 0.436755
vertex -1.344194 1.797848 -0.436755
endloop
endfacet
facet normal -1.000000 0.000000 0.000000
outer loop
vertex -1.344194 1.797848 -0.436755
vertex -1.344194 1.177433 -0.436755
vertex -1.344194 1.177433 0.436755
endloop
endfacet
facet normal 0.309017 0.000000 0.951057
outer loop
vertex 0.830758 1.177433 1.143440
vertex 0.830758 1.797848 1.143440
vertex -0.000000 1.797848 1.413370
endloop
endfacet
facet normal 0.309017 0.000000 0.951056
outer loop
vertex -0.000000 1.797848 1.413370
vertex -0.000000 1.177433 1.413370
vertex 0.830758 1.177433 1.143440
endloop
endfacet
facet normal -0.309017 0.000000 -0.951056
outer loop
vertex -0.830758 1.177433 -1.143440
vertex -0.830758 1.797848 -1.143440
vertex -0.000000 1.797848 -1.413370
endloop
endfacet
facet normal -0.309017 0.000000 -0.951057
outer loop
vertex -0.000000 1.797848 -1.413370
vertex -0.000000 1.177433 -1.413370
vertex -0.830758 1.177433 -1.143440
endloop
endfacet
facet normal 0.809017 0.000000 -0.587785
outer loop
vertex 0.830758 1.177433 -1.143440
vertex 0.830758 1.797848 -1.143440
vertex 1.344194 1.797848 -0.436755
endloop
endfacet
facet normal 0.809017 0.000000 -0.587785
outer loop
vertex 1.344194 1.797848 -0.436755
vertex 1.344194 1.177433 -0.436755
vertex 0.830758 1.177433 -1.143440
endloop
endfacet
facet normal -0.809017 0.000000 0.587785
outer loop
vertex -0.830758 1.177433 1.143440
vertex -0.830758 1.797848 1.143440
vertex -1.344194 1.797848 0.436755
endloop
endfacet
facet normal -0.809017 0.000000 0.587785
outer loop
vertex -1.344194 1.797848 0.436755
vertex -1.344194 1.177433 0.436755
vertex -0.830758 1.177433 1.143440
endloop
endfacet
facet normal 0.809017 0.000000 0.587785
outer loop
vertex 1.344194 1.177433 0.436755
vertex 1.344194 1.797848 0.436755
vertex 0.830758 1.797848 1.143440
endloop
endfacet
facet normal 0.809017 0.000000 0.587785
outer loop
vertex 0.830758 1.797848 1.143440
vertex 0.830758 1.177433 1.143440
vertex 1.344194 1.177433 0.436755
endloop
endfacet
facet normal -0.196978 -0.770504 0.606236
outer loop
vertex -0.000000 1.797848 1.413370
vertex -0.000000 1.989702 1.657209
vertex -0.974082 1.989702 1.340710
endloop
endfacet
facet normal -0.196978 -0.770504 0.606237
outer loop
vertex -0.974082 1.989702 1.340710
vertex -0.830758 1.797848 1.143440
vertex -0.000000 1.797848 1.413370
endloop
endfacet
facet normal 0.515696 -0.770504 -0.374675
outer loop
vertex 0.830758 1.797848 -1.143440
vertex 0.974083 1.989702 -1.340710
vertex 1.576099 1.989702 -0.512106
endloop
endfacet
facet normal 0.515696 -0.770504 -0.374675
outer loop
vertex 1.576099 1.989702 -0.512106
vertex 1.344194 1.797848 -0.436755
vertex 0.830758 1.797848 -1.143440
endloop
endfacet
facet normal -0.637435 -0.770504 0.000000
outer loop
vertex -1.344194 1.797848 0.436755
vertex -1.576099 1.989702 0.512106
vertex -1.576099 1.989702 -0.512106
endloop
endfacet
facet normal -0.637435 -0.770504 0.000000
outer loop
vertex -1.576099 1.989702 -0.512106
vertex -1.344194 1.797848 -0.436755
vertex -1.344194 1.797848 0.436755
endloop
endfacet
facet normal 0.515696 -0.770504 0.374675
outer loop
vertex 1.344194 1.797848 0.436755
vertex 1.576099 1.989702 0.512106
vertex 0.974083 1.989702 1.340710
endloop
endfacet
facet normal 0.515696 -0.770504 0.374675
outer loop
vertex 0.974083 1.989702 1.340710
vertex 0.830758 1.797848 1.143440
vertex 1.344194 1.797848 0.436755
endloop
endfacet
facet normal 0.196978 -0.770504 -0.606237
outer loop
vertex -0.000000 1.797848 -1.413370
vertex -0.000000 1.989702 -1.657209
vertex 0.974083 1.989702 -1.340710
endloop
endfacet
facet normal 0.196978 -0.770504 -0.606237
outer loop
vertex 0.974083 1.989702 -1.340710
vertex 0.830758 1.797848 -1.143440
vertex -0.000000 1.797848 -1.413370
endloop
endfacet
facet normal 0.196978 -0.770505 0.606236
outer loop
vertex 0.830758 1.797848 1.143440
vertex 0.974083 1.989702 1.340710
vertex -0.000000 1.989702 1.657209
endloop
endfacet
facet normal 0.196978 -0.770504 0.606237
outer loop
vertex -0.000000 1.989702 1.657209
vertex -0.000000 1.797848 1.413370
vertex 0.830758 1.797848 1.143440
endloop
endfacet
facet normal 0.637435 -0.770505 0.000000
outer loop
vertex 1.344194 1.797848 -0.436755
vertex 1.576099 1.989702 -0.512106
vertex 1.576099 1.989702 0.512106
endloop
endfacet
facet normal 0.637435 -0.770504 0.000000
outer loop
vertex 1.576099 1.989702 0.512106
vertex 1.344194 1.797848 0.436755
vertex 1.344194 1.797848 -0.436755
endloop
endfacet
facet normal -0.515696 -0.770504 0.374675
outer loop
vertex -0.830758 1.797848 1.143440
vertex -0.974082 1.989702 1.340710
vertex -1.576099 1.989702 0.512106
endloop
endfacet
facet normal -0.515696 -0.770504 0.374676
outer loop
vertex -1.576099 1.989702 0.512106
vertex -1.344194 1.797848 0.436755
vertex -0.830758 1.797848 1.143440
endloop
endfacet
facet normal -0.196978 -0.770505 -0.606236
outer loop
vertex -0.830758 1.797848 -1.143440
vertex -0.974083 1.989702 -1.340710
vertex -0.000000 1.989702 -1.657209
endloop
endfacet
facet normal -0.196978 -0.770504 -0.606237
outer loop
vertex -0.000000 1.989702 -1.657209
vertex -0.000000 1.797848 -1.413370
vertex -0.830758 1.797848 -1.143440
endloop
endfacet
facet normal -0.515696 -0.770504 -0.374675
outer loop
vertex -1.344194 1.797848 -0.436755
vertex -1.576099 1.989702 -0.512106
vertex -0.974083 1.989702 -1.340710
endloop
endfacet
facet normal -0.515696 -0.770504 -0.374675
outer loop
vertex -0.974083 1.989702 -1.340710
vertex -0.830758 1.797848 -1.143440
vertex -1.344194 1.797848 -0.436755
endloop
endfacet
facet normal 0.809017 0.000000 -0.587786
outer loop
vertex 0.974083 1.989702 -1.340710
vertex 0.974083 2.231988 -1.340710
vertex 1.576099 2.231988 -0.512106
endloop
endfacet
facet normal 0.809017 0.000000 -0.587785
outer loop
vertex 1.576099 2.231988 -0.512106
vertex 1.576099 1.989702 -0.512106
vertex 0.974083 1.989702 -1.340710
endloop
endfacet
facet normal -0.809017 0.000000 0.587786
outer loop
vertex -0.974082 1.989702 1.340710
vertex -0.974082 2.231988 1.340710
vertex -1.576099 2.231988 0.512106
endloop
endfacet
facet normal -0.809017 0.000000 0.587785
outer loop
vertex -1.576099 2.231988 0.512106
vertex -1.576099 1.989702 0.512106
vertex -0.974082 1.989702 1.340710
endloop
endfacet
facet normal 1.000000 0.000000 0.000000
outer loop
vertex 1.576099 1.989702 -0.512106
vertex 1.576099 2.231988 -0.512106
vertex 1.576099 2.231988 0.512106
endloop
endfacet
facet normal 1.000000 0.000000 0.000000
outer loop
vertex 1.576099 2.231988 0.512106
vertex 1.576099 1.989702 0.512106
vertex 1.576099 1.989702 -0.512106
endloop
endfacet
facet normal 0.309017 0.000000 0.951056
outer loop
vertex 0.974083 1.989702 1.340710
vertex 0.974083 2.231988 1.340710
vertex -0.000000 2.231988 1.657209
endloop
endfacet
facet normal 0.309017 0.000000 0.951056
outer loop
vertex -0.000000 2.231988 1.657209
vertex -0.000000 1.989702 1.657209
vertex 0.974083 1.989702 1.340710
endloop
endfacet
facet normal -1.000000 0.000000 0.000000
outer loop
vertex -1.576099 1.989702 0.512106
vertex -1.576099 2.231988 0.512106
vertex -1.576099 2.231988 -0.512106
endloop
endfacet
facet normal -1.000000 0.000000 0.000000
outer loop
vertex -1.576099 2.231988 -0.512106
vertex -1.576099 1.989702 -0.512106
vertex -1.576099 1.989702 0.512106
endloop
endfacet
facet normal -0.809017 0.000000 -0.587785
outer loop
vertex -1.576099 1.989702 -0.512106
vertex -1.576099 2.231988 -0.512106
vertex -0.974083 2.231988 -1.340710
endloop
endfacet
facet normal -0.809017 0.000000 -0.587785
outer loop
vertex -0.974083 2.231988 -1.340710
vertex -0.974083 1.989702 -1.340710
vertex -1.576099 1.989702 -0.512106
endloop
endfacet
facet normal -0.309017 0.000000 0.951057
outer loop
vertex -0.000000 1.989702 1.657209
vertex -0.000000 2.231988 1.657209
vertex -0.974082 2.231988 1.340710
endloop
endfacet
facet normal -0.309017 0.000000 0.951056
outer loop
vertex -0.974082 2.231988 1.340710
vertex -0.974082 1.989702 1.340710
vertex -0.000000 1.989702 1.657209
endloop
endfacet
facet normal -0.309017 0.000000 -0.951057
outer loop
vertex -0.974083 1.989702 -1.340710
vertex -0.974083 2.231988 -1.340710
vertex -0.000000 2.231988 -1.657209
endloop
endfacet
facet normal -0.309017 0.000000 -0.951056
outer loop
vertex -0.000000 2.231988 -1.657209
vertex -0.000000 1.989702 -1.657209
vertex -0.974083 1.989702 -1.340710
endloop
endfacet
facet normal 0.309017 0.000000 -0.951057
outer loop
vertex -0.000000 1.989702 -1.657209
vertex -0.000000 2.231988 -1.657209
vertex 0.974083 2.231988 -1.340710
endloop
endfacet
facet normal 0.309017 0.000000 -0.951057
outer loop
vertex 0.974083 2.231988 -1.340710
vertex 0.974083 1.989702 -1.340710
vertex -0.000000 1.989702 -1.657209
endloop
endfacet
facet normal 0.809017 0.000000 0.587785
outer loop
vertex 1.576099 1.989702 0.512106
vertex 1.576099 2.231988 0.512106
vertex 0.974083 2.231988 1.340710
endloop
endfacet
facet normal 0.809017 0.000000 0.587785
outer loop
vertex 0.974083 2.231988 1.340710
vertex 0.974083 1.989702 1.340710
vertex 1.576099 1.989702 0.512106
endloop
endfacet
facet normal 0.000000 1.000000 0.000000
outer loop
vertex 1.576099 2.231988 -0.512106
vertex 1.371557 2.231988 -0.445646
vertex 1.371557 2.231988 0.445646
endloop
endfacet
facet normal 0.000000 1.000000 0.000000
outer loop
vertex 1.371557 2.231988 0.445646
vertex 1.576099 2.231988 0.512106
vertex 1.576099 2.231988 -0.512106
endloop
endfacet
facet normal 0.000000 1.000000 0.000000
outer loop
vertex 0.974083 2.231988 -1.340710
vertex 0.847669 2.231988 -1.166716
vertex 1.371557 2.231988 -0.445646
endloop
endfacet
facet normal 0.000000 1.000000 0.000000
outer loop
vertex 1.371557 2.231988 -0.445646
vertex 1.576099 2.231988 -0.512106
vertex 0.974083 2.231988 -1.340710
endloop
endfacet
facet normal 0.000000 1.000000 0.000000
outer loop
vertex -1.576099 2.231988 0.512106
vertex -1.371557 2.231988 0.445646
vertex -1.371557 2.231988 -0.445646
endloop
endfacet
facet normal 0.000000 1.000000 0.000000
outer loop
vertex -1.371557 2.231988 -0.445646
vertex -1.576099 2.231988 -0.512106
vertex -1.576099 2.231988 0.512106
endloop
endfacet
facet normal 0.000000 1.000000 0.000000
outer loop
vertex -0.974083 2.231988 -1.340710
vertex -0.847669 2.231988 -1.166716
vertex -0.000000 2.231988 -1.442141
endloop
endfacet
facet normal 0.000000 1.000000 -0.000002
outer loop
vertex -0.000000 2.231988 -1.442141
vertex -0.000000 2.231988 -1.657209
vertex -0.974083 2.231988 -1.340710
endloop
endfacet
facet normal 0.000000 1.000000 0.000000
outer loop
vertex -0.974082 2.231988 1.340710
vertex -0.847669 2.231988 1.166716
vertex -1.371557 2.231988 0.445646
endloop
endfacet
facet normal 0.000000 1.000000 0.000000
outer loop
vertex -1.371557 2.231988 0.445646
vertex -1.576099 2.231988 0.512106
vertex -0.974082 2.231988 1.340710
endloop
endfacet
facet normal 0.000000 1.000000 0.000000
outer loop
vertex 1.576099 2.231988 0.512106
vertex 1.371557 2.231988 0.445646
vertex 0.847669 2.231988 1.166716
endloop
endfacet
facet normal 0.000000 1.000000 0.000000
outer loop
vertex 0.847669 2.231988 1.166716
vertex 0.974083 2.231988 1.340710
vertex 1.576099 2.231988 0.512106
endloop
endfacet
facet normal 0.000000 1.000000 0.000001
outer loop
vertex -1.576099 2.231988 -0.512106
vertex -1.371557 2.231988 -0.445646
vertex -0.847669 2.231988 -1.166716
endloop
endfacet
facet normal 0.000000 1.000000 0.000000
outer loop
vertex -0.847669 2.231988 -1.166716
vertex -0.974083 2.231988 -1.340710
vertex -1.576099 2.231988 -0.512106
endloop
endfacet
facet normal 0.000000 1.000000 0.000001
outer loop
vertex -0.000000 2.231988 -1.657209
vertex -0.000000 2.231988 -1.442141
vertex 0.847669 2.231988 -1.166716
endloop
endfacet
facet normal 0.000000 1.000000 0.000000
outer loop
vertex 0.847669 2.231988 -1.166716
vertex 0.974083 2.231988 -1.340710
vertex -0.000000 2.231988 -1.657209
endloop
endfacet
facet normal 0.000000 1.000000 0.000000
outer loop
vertex -0.000000 2.231988 1.657209
vertex -0.000000 2.231988 1.442141
vertex -0.847669 2.231988 1.166716
endloop
endfacet
facet normal 0.000000 1.000000 0.000000
outer loop
vertex -0.847669 2.231988 1.166716
vertex -0.974082 2.231988 1.340710
vertex -0.000000 2.231988 1.657209
endloop
endfacet
facet normal 0.000000 1.000000 0.000001
outer loop
vertex 0.974083 2.231988 1.340710
vertex 0.847669 2.231988 1.166716
vertex -0.000000 2.231988 1.442141
endloop
endfacet
facet normal 0.000000 1.000000 0.000000
outer loop
vertex -0.000000 2.231988 1.442141
vertex -0.000000 2.231988 1.657209
vertex 0.974083 2.231988 1.340710
endloop
endfacet
facet normal -0.784353 0.245035 -0.569866
outer loop
vertex 0.847669 2.231988 1.166716
vertex 1.371557 2.231988 0.445646
vertex 0.807443 0.000000 0.262354
endloop
endfacet
facet normal -0.784353 0.245036 -0.569866
outer loop
vertex 0.807443 0.000000 0.262354
vertex 0.499027 0.000000 0.686852
vertex 0.847669 2.231988 1.166716
endloop
endfacet
facet normal -0.969514 0.245036 0.000000
outer loop
vertex 1.371557 2.231988 0.445646
vertex 1.371557 2.231988 -0.445646
vertex 0.807443 0.000000 -0.262354
endloop
endfacet
facet normal -0.969514 0.245036 0.000000
outer loop
vertex 0.807443 0.000000 -0.262354
vertex 0.807443 0.000000 0.262354
vertex 1.371557 2.231988 0.445646
endloop
endfacet
facet normal -0.784353 0.245036 0.569866
outer loop
vertex 1.371557 2.231988 -0.445646
vertex 0.847669 2.231988 -1.166716
vertex 0.499027 0.000000 -0.686852
endloop
endfacet
facet normal -0.784353 0.245036 0.569866
outer loop
vertex 0.499027 0.000000 -0.686852
vertex 0.807443 0.000000 -0.262354
vertex 1.371557 2.231988 -0.445646
endloop
endfacet
facet normal -0.299596 0.245036 0.922063
outer loop
vertex 0.847669 2.231988 -1.166716
vertex -0.000000 2.231988 -1.442141
vertex -0.000000 0.000000 -0.848996
endloop
endfacet
facet normal -0.299596 0.245036 0.922063
outer loop
vertex -0.000000 0.000000 -0.848996
vertex 0.499027 0.000000 -0.686852
vertex 0.847669 2.231988 -1.166716
endloop
endfacet
facet normal 0.299596 0.245036 0.922063
outer loop
vertex -0.000000 2.231988 -1.442141
vertex -0.847669 2.231988 -1.166716
vertex -0.499027 0.000000 -0.686852
endloop
endfacet
facet normal 0.299596 0.245036 0.922063
outer loop
vertex -0.499027 0.000000 -0.686852
vertex -0.000000 0.000000 -0.848996
vertex -0.000000 2.231988 -1.442141
endloop
endfacet
facet normal 0.784353 0.245036 0.569866
outer loop
vertex -0.847669 2.231988 -1.166716
vertex -1.371557 2.231988 -0.445646
vertex -0.807443 0.000000 -0.262354
endloop
endfacet
facet normal 0.784353 0.245036 0.569866
outer loop
vertex -0.807443 0.000000 -0.262354
vertex -0.499027 0.000000 -0.686852
vertex -0.847669 2.231988 -1.166716
endloop
endfacet
facet normal 0.969514 0.245036 0.000000
outer loop
vertex -1.371557 2.231988 -0.445646
vertex -1.371557 2.231988 0.445646
vertex -0.807443 0.000000 0.262354
endloop
endfacet
facet normal 0.969514 0.245035 0.000000
outer loop
vertex -0.807443 0.000000 0.262354
vertex -0.807443 0.000000 -0.262354
vertex -1.371557 2.231988 -0.445646
endloop
endfacet
facet normal 0.784353 0.245036 -0.569866
outer loop
vertex -1.371557 2.231988 0.445646
vertex -0.847669 2.231988 1.166716
vertex -0.499027 0.000000 0.686852
endloop
endfacet
facet normal 0.784353 0.245036 -0.569866
outer loop
vertex -0.499027 0.000000 0.686852
vertex -0.807443 0.000000 0.262354
vertex -1.371557 2.231988 0.445646
endloop
endfacet
facet normal 0.299596 0.245036 -0.922063
outer loop
vertex -0.847669 2.231988 1.166716
vertex -0.000000 2.231988 1.442141
vertex 0.000000 0.000000 0.848996
endloop
endfacet
facet normal 0.299596 0.245036 -0.922063
outer loop
vertex 0.000000 0.000000 0.848996
vertex -0.499027 0.000000 0.686852
vertex -0.847669 2.231988 1.166716
endloop
endfacet
facet normal -0.299596 0.245036 -0.922063
outer loop
vertex -0.000000 2.231988 1.442141
vertex 0.847669 2.231988 1.166716
vertex 0.499027 0.000000 0.686852
endloop
endfacet
facet normal -0.299596 0.245036 -0.922063
outer loop
vertex 0.499027 0.000000 0.686852
vertex 0.000000 0.000000 0.848996
vertex -0.000000 2.231988 1.442141
endloop
endfacet
facet normal 1.000000 0.000000 -0.000000
outer loop
vertex 0.951056 0.000000 -0.309017
vertex 0.951057 0.000000 0.309017
vertex 0.951057 -0.105153 0.309017
endloop
endfacet
facet normal 1.000000 0.000000 -0.000000
outer loop
vertex 0.951057 -0.105153 0.309017
vertex 0.951056 -0.105153 -0.309017
vertex 0.951056 0.000000 -0.309017
endloop
endfacet
facet normal -1.000000 0.000000 0.000000
outer loop
vertex -0.951056 0.000000 0.309017
vertex -0.951056 0.000000 -0.309017
vertex -0.951056 -0.105153 -0.309017
endloop
endfacet
facet normal -1.000000 0.000000 0.000000
outer loop
vertex -0.951056 -0.105153 -0.309017
vertex -0.951056 -0.105153 0.309017
vertex -0.951056 0.000000 0.309017
endloop
endfacet
facet normal 0.309017 0.000000 0.951056
outer loop
vertex 0.587785 0.000000 0.809017
vertex 0.000000 0.000000 1.000000
vertex 0.000000 -0.105153 1.000000
endloop
endfacet
facet normal 0.309017 0.000000 0.951057
outer loop
vertex 0.000000 -0.105153 1.000000
vertex 0.587785 -0.105153 0.809017
vertex 0.587785 0.000000 0.809017
endloop
endfacet
facet normal -0.309017 0.000000 -0.951057
outer loop
vertex -0.587785 0.000000 -0.809017
vertex -0.000000 0.000000 -1.000000
vertex -0.000000 -0.105153 -1.000000
endloop
endfacet
facet normal -0.309017 0.000000 -0.951057
outer loop
vertex -0.000000 -0.105153 -1.000000
vertex -0.587785 -0.105153 -0.809017
vertex -0.587785 0.000000 -0.809017
endloop
endfacet
facet normal 0.809017 0.000000 -0.587785
outer loop
vertex 0.587785 0.000000 -0.809017
vertex 0.951056 0.000000 -0.309017
vertex 0.951056 -0.105153 -0.309017
endloop
endfacet
facet normal 0.809017 0.000000 -0.587785
outer loop
vertex 0.951056 -0.105153 -0.309017
vertex 0.587785 -0.105153 -0.809017
vertex 0.587785 0.000000 -0.809017
endloop
endfacet
facet normal -0.809017 0.000000 0.587785
outer loop
vertex -0.587785 0.000000 0.809017
vertex -0.951056 0.000000 0.309017
vertex -0.951056 -0.105153 0.309017
endloop
endfacet
facet normal -0.809017 0.000000 0.587785
outer loop
vertex -0.951056 -0.105153 0.309017
vertex -0.587785 -0.105153 0.809017
vertex -0.587785 0.000000 0.809017
endloop
endfacet
facet normal 0.809017 0.000000 0.587785
outer loop
vertex 0.951057 0.000000 0.309017
vertex 0.587785 0.000000 0.809017
vertex 0.587785 -0.105153 0.809017
endloop
endfacet
facet normal 0.809017 0.000000 0.587785
outer loop
vertex 0.587785 -0.105153 0.809017
vertex 0.951057 -0.105153 0.309017
vertex 0.951057 0.000000 0.309017
endloop
endfacet
facet normal -0.809017 0.000000 -0.587785
outer loop
vertex -0.951056 0.000000 -0.309017
vertex -0.587785 0.000000 -0.809017
vertex -0.587785 -0.105153 -0.809017
endloop
endfacet
facet normal -0.809017 0.000000 -0.587785
outer loop
vertex -0.587785 -0.105153 -0.809017
vertex -0.951056 -0.105153 -0.309017
vertex -0.951056 0.000000 -0.309017
endloop
endfacet
facet normal 0.309017 0.000000 -0.951056
outer loop
vertex -0.000000 0.000000 -1.000000
vertex 0.587785 0.000000 -0.809017
vertex 0.587785 -0.105153 -0.809017
endloop
endfacet
facet normal 0.309017 0.000000 -0.951057
outer loop
vertex 0.587785 -0.105153 -0.809017
vertex -0.000000 -0.105153 -1.000000
vertex -0.000000 0.000000 -1.000000
endloop
endfacet
facet normal -0.309017 0.000000 0.951057
outer loop
vertex 0.000000 0.000000 1.000000
vertex -0.587785 0.000000 0.809017
vertex -0.587785 -0.105153 0.809017
endloop
endfacet
facet normal -0.309017 0.000000 0.951057
outer loop
vertex -0.587785 -0.105153 0.809017
vertex 0.000000 -0.105153 1.000000
vertex 0.000000 0.000000 1.000000
endloop
endfacet
facet normal 0.000000 -1.000000 0.000000
outer loop
vertex 0.587785 -0.105153 0.809017
vertex 0.000000 -0.105153 -0.000000
vertex 0.951057 -0.105153 0.309017
endloop
endfacet
facet normal 0.000000 -1.000000 0.000000
outer loop
vertex 0.951057 -0.105153 0.309017
vertex 0.000000 -0.105153 -0.000000
vertex 0.951056 -0.105153 -0.309017
endloop
endfacet
facet normal 0.000000 -1.000000 0.000000
outer loop
vertex 0.951056 -0.105153 -0.309017
vertex 0.000000 -0.105153 -0.000000
vertex 0.587785 -0.105153 -0.809017
endloop
endfacet
facet normal 0.000000 -1.000000 -0.000000
outer loop
vertex 0.587785 -0.105153 -0.809017
vertex 0.000000 -0.105153 -0.000000
vertex -0.000000 -0.105153 -1.000000
endloop
endfacet
facet normal 0.000000 -1.000000 0.000000
outer loop
vertex -0.000000 -0.105153 -1.000000
vertex 0.000000 -0.105153 -0.000000
vertex -0.587785 -0.105153 -0.809017
endloop
endfacet
facet normal 0.000000 -1.000000 -0.000000
outer loop
vertex -0.951056 -0.105153 -0.309017
vertex -0.587785 -0.105153 -0.809017
vertex 0.000000 -0.105153 -0.000000
endloop
endfacet
facet normal 0.000000 -1.000000 0.000000
outer loop
vertex 0.000000 -0.105153 1.000000
vertex 0.000000 -0.105153 -0.000000
vertex 0.587785 -0.105153 0.809017
endloop
endfacet
facet normal 0.000000 -1.000000 0.000000
outer loop
vertex -0.587785 -0.105153 0.809017
vertex 0.000000 -0.105153 -0.000000
vertex 0.000000 -0.105153 1.000000
endloop
endfacet
facet normal 0.000000 -1.000000 0.000000
outer loop
vertex -0.951056 -0.105153 0.309017
vertex 0.000000 -0.105153 -0.000000
vertex -0.587785 -0.105153 0.809017
endloop
endfacet
facet normal 0.000000 -1.000000 0.000000
outer loop
vertex -0.951056 -0.105153 -0.309017
vertex 0.000000 -0.105153 -0.000000
vertex -0.951056 -0.105153 0.309017
endloop
endfacet
facet normal 0.000000 1.000000 0.000000
outer loop
vertex 0.807443 0.000000 0.262354
vertex 0.807443 0.000000 -0.262354
vertex -0.000000 0.000000 0.000000
endloop
endfacet
facet normal 0.000000 1.000000 0.000000
outer loop
vertex 0.499027 0.000000 0.686852
vertex 0.807443 0.000000 0.262354
vertex -0.000000 0.000000 0.000000
endloop
endfacet
facet normal 0.000000 1.000000 0.000000
outer loop
vertex 0.000000 0.000000 0.848996
vertex 0.499027 0.000000 0.686852
vertex -0.000000 0.000000 0.000000
endloop
endfacet
facet normal 0.000000 1.000000 0.000000
outer loop
vertex -0.499027 0.000000 0.686852
vertex 0.000000 0.000000 0.848996
vertex -0.000000 0.000000 0.000000
endloop
endfacet
facet normal 0.000000 1.000000 0.000000
outer loop
vertex -0.807443 0.000000 0.262354
vertex -0.499027 0.000000 0.686852
vertex -0.000000 0.000000 0.000000
endloop
endfacet
facet normal 0.000000 1.000000 0.000000
outer loop
vertex -0.807443 0.000000 -0.262354
vertex -0.807443 0.000000 0.262354
vertex -0.000000 0.000000 0.000000
endloop
endfacet
facet normal 0.000000 1.000000 0.000000
outer loop
vertex -0.499027 0.000000 -0.686852
vertex -0.807443 0.000000 -0.262354
vertex -0.000000 0.000000 0.000000
endloop
endfacet
facet normal 0.000000 1.000000 0.000000
outer loop
vertex -0.000000 0.000000 -0.848996
vertex -0.499027 0.000000 -0.686852
vertex -0.000000 0.000000 0.000000
endloop
endfacet
facet normal 0.000000 1.000000 0.000000
outer loop
vertex -0.000000 0.000000 -0.848996
vertex -0.000000 0.000000 0.000000
vertex 0.499027 0.000000 -0.686852
endloop
endfacet
facet normal 0.000000 1.000000 0.000000
outer loop
vertex 0.807443 0.000000 -0.262354
vertex 0.499027 0.000000 -0.686852
vertex -0.000000 0.000000 0.000000
endloop
endfacet
endsolid Exported from Blender-2.78 (sub 0)
